<svg width="150" height="150" viewBox="0 0 150 150" fill="none" xmlns="http://www.w3.org/2000/svg">
<g clip-path="url(#clip0_1_2)">
<rect width="150" height="150" fill="none"/>
<path d="M3 145H9.786L11.758 135.778H20.864L22.894 145H29.912L20.806 105.154H12.048L3 145ZM12.686 130.094L15.238 117.392C15.47 116.232 15.934 113.564 16.166 111.94H16.514C16.804 113.738 17.268 116.464 17.442 117.392L19.936 130.094H12.686ZM36.9803 145H45.9703C54.6703 145 59.6583 142.216 59.6583 133.864C59.6583 127.832 56.9323 125.512 53.4523 124.41V124.178C56.6423 122.786 58.9623 119.654 58.9623 114.608C58.9623 108.692 55.5983 105.154 48.6383 105.154H36.9803V145ZM43.5923 122.09V110.954H47.7103C50.7843 110.954 52.3503 112.984 52.3503 116.116C52.3503 119.712 50.9583 122.09 47.6523 122.09H43.5923ZM43.5923 139.2V127.6H48.0003C51.6543 127.6 52.9303 129.862 52.9303 133.284C52.9303 137.344 51.5963 139.2 47.8263 139.2H43.5923ZM79.3706 145.696C87.4326 145.696 91.8406 141.114 91.8406 129.92H85.5186C85.5186 136.648 83.8366 139.896 79.7766 139.896C75.5426 139.896 73.7446 136.242 73.7446 127.542V122.786C73.7446 114.028 75.7166 110.258 79.9506 110.258C84.1266 110.258 85.4026 113.854 85.4026 120.35H91.8986C91.8986 109.098 88.0126 104.458 80.3566 104.458C70.7866 104.458 66.9006 110.896 66.9006 125.048C66.9006 139.084 70.0326 145.696 79.3706 145.696Z" fill="black"/>
<path fill-rule="evenodd" clip-rule="evenodd" d="M150.123 64.998C149.669 68.0071 148.523 70.8701 146.773 73.3611C145.024 75.8521 142.721 77.9024 140.043 79.3498C139.302 79.7611 138.524 80.1061 137.723 80.3811C138.742 93.8858 117.281 98.7966 105.716 95.5801L110.013 110.607L98.9641 111L79.6278 83.3153C73.1087 85.1569 65.411 86.0408 60.4388 78.0607C59.9871 77.3278 59.5772 76.5691 59.2111 75.7895C57.9463 76.0473 56.6592 76.1787 55.3684 76.1824C51.6853 76.1824 45.5468 75.0774 42.4284 72.9167C39.9562 71.2777 37.9949 68.9757 36.7687 66.2748C30.1268 67.1833 24.4917 65.6241 20.8086 61.7691C16.1433 56.9688 14.8174 49.0378 17.2482 40.5299C20.4525 29.1736 30.2005 16.3809 49.5736 11.5806C51.2543 9.49131 53.2656 7.6915 55.528 6.25239C67.6945 -1.54353 87.4483 -2.21877 102.439 5.18428C108.25 4.10169 114.249 4.67601 119.749 6.84168C130.528 10.8808 138.361 19.3274 139.834 27.9091C142.753 29.4212 145.142 31.7847 146.685 34.686C149.914 40.7508 150.368 46.828 148.195 51.7388C150.242 55.8381 150.918 60.4862 150.123 64.998ZM142.167 58.6139C140.451 59.52 138.54 59.9939 136.599 59.9939C134.658 59.9939 132.748 59.52 131.032 58.6139L131.928 52.6596C135.709 53.0279 138.791 51.8493 140.399 49.4307C142.204 46.742 141.921 42.752 139.638 38.4673C137.084 33.667 131.572 32.9058 128.515 32.869H128.319C120.658 32.869 112.849 37.2273 109.694 42.9116L105.103 40.714C106.005 37.7858 107.539 35.0911 109.596 32.8199C107.825 31.3164 106.487 29.3684 105.719 27.1761C104.95 24.9838 104.78 22.6264 105.225 20.3464L109.756 19.929C109.963 21.773 110.726 23.5105 111.942 24.9114C113.159 26.3123 114.773 27.3106 116.569 27.774C120.348 26.0873 124.451 25.2493 128.589 25.3186C129.178 25.3186 129.743 25.38 130.32 25.4168C127.384 20.2128 122.732 16.19 117.159 14.036C103.556 8.7569 94.3848 16.9457 92.2854 19.7694C87.2273 26.5463 90.4684 32.9549 92.9361 37.1168L88.8847 40.8C85.3563 37.7479 82.9887 33.5721 82.1814 28.9772C76.9883 30.5363 70.0149 30.2049 66.1108 23.5384L69.7939 21.0094C73.9313 24.1032 80.4995 23.8331 83.6178 20.0149C84.3609 18.3267 85.3004 16.7319 86.417 15.2637C88.1898 12.9225 90.329 10.8828 92.752 9.22343C82.5743 6.44882 68.1979 6.90307 59.5058 12.4768C57.1569 13.8408 55.2235 15.8183 53.9128 18.1973C52.6023 20.5765 51.9637 23.2674 52.0659 25.9816C52.0659 30.3645 55.5035 37.2887 60.1319 38.3691L57.4432 43.5868C54.4901 42.9029 51.8092 41.3508 49.7455 39.1303L45.7555 44.213L41.7655 42.2732L45.6696 32.0587C45.0316 30.0747 44.7046 28.0041 44.6997 25.9202C44.7095 24.2703 44.8822 22.6254 45.2153 21.0094C32.9383 26.0798 26.8734 34.5141 24.6513 42.2241C22.9448 48.1539 23.6077 53.5067 26.4069 56.3795C28.629 58.663 32.0298 59.2032 35.2341 58.9945L43.828 52.3035L46.6517 54.6853L44.0981 63.0582C45.4363 67.3183 49.8192 69.5159 57.8115 67.969C58.2259 64.5793 59.5637 61.3689 61.6788 58.6876C63.2298 56.4556 65.2816 54.619 67.67 53.3225L71.8687 42.0154L76.0675 41.8312L75.6132 51.1004C82.6725 50.376 90.5666 51.8125 97.9206 50.7075L99.2711 55.6183C88.4918 60.6028 77.4548 52.4754 67.449 63.1933C63.8518 67.0482 65.2269 70.3999 67.449 73.7761C70.6533 78.6009 76.669 75.7036 82.8198 73.7761C92.1381 70.9278 98.9027 68.8652 111.659 69.9088C108.614 64.1263 108.909 57.1407 112.984 49.4553L118.988 51.8247C114.777 61.5359 118.718 67.1587 121.443 69.6387C125.654 73.4691 131.989 74.6232 136.176 72.3151C137.779 71.4299 139.158 70.1875 140.205 68.6848C141.252 67.1821 141.94 65.4584 142.216 63.6475C142.492 61.9791 142.471 60.275 142.155 58.6139H142.167Z" fill="maroon"/>
</g>
<defs>
<clipPath id="clip0_1_2">
<rect width="150" height="150" fill="#FA8072"/>
</clipPath>
</defs>
</svg>
